<svg width="29" height="26" viewBox="0 0 29 26" fill="none" xmlns="http://www.w3.org/2000/svg">
<path fill-rule="evenodd" clip-rule="evenodd" d="M9.45417 9.31405L13.8727 23.6365L8.19375 11.4713L9.45417 9.31405ZM3.7288 19.1124L13.2361 24.729L2.91478 20.5061L3.7288 19.1124V19.1124ZM7.19551 13.1798L13.6168 24.0805L6.17713 14.9227L7.19551 13.1798V13.1798ZM5.36675 16.3094L13.412 24.4266L4.5205 17.7578L5.36675 16.3094V16.3094ZM0 25.501H14.1742L0.899957 23.9523L0.00452067 25.4905L0 25.501ZM14.4992 22.6154L14.4849 0.500977L16.9312 4.7024L14.4992 22.6154ZM14.1705 23.125L10.7011 7.18007L12.5061 4.09086L14.1705 23.125ZM29 25.501H14.8258L28.0999 23.9523L28.9953 25.4905L29 25.501ZM27.543 22.9961L15.9446 25.0454L26.7433 21.622L27.543 22.9961V22.9961ZM19.729 9.53102L14.8319 23.134L18.1518 6.81468L19.729 9.53102V9.53102ZM21.8042 13.1052L15.1216 23.6333L20.6871 11.1813L21.8042 13.1052ZM26.2493 20.7621L15.7627 24.7311L25.4634 19.4079L26.2493 20.7621V20.7621ZM23.5006 16.0272L15.3794 24.0747L22.538 14.3699L23.5006 16.0272V16.0272ZM24.9174 18.4679L15.5843 24.4296L24.1369 17.1235L24.9174 18.4679V18.4679ZM1.45984 22.9961L2.25979 21.622L13.0583 25.0454L1.45984 22.9961V22.9961Z" fill="#FF4532"/>
</svg>
